<svg width="32" height="32" viewBox="0 0 32 32" fill="none" xmlns="http://www.w3.org/2000/svg">
<rect opacity="0.1" width="32" height="32" rx="16" fill="white"/>
<path fill-rule="evenodd" clip-rule="evenodd" d="M16.0008 7C13.5566 7 13.2498 7.01069 12.2898 7.05438C11.3317 7.09825 10.6777 7.24994 10.1055 7.4725C9.51353 7.70238 9.0114 8.00988 8.51115 8.51031C8.01053 9.01056 7.70303 9.51269 7.4724 10.1044C7.24928 10.6769 7.0974 11.3311 7.05428 12.2888C7.01134 13.2488 7.00009 13.5558 7.00009 16C7.00009 18.4443 7.01097 18.7501 7.05447 19.7101C7.09853 20.6682 7.25022 21.3222 7.47259 21.8944C7.70265 22.4864 8.01015 22.9885 8.51059 23.4888C9.01065 23.9894 9.51278 24.2976 10.1043 24.5275C10.677 24.7501 11.3312 24.9018 12.2891 24.9456C13.2491 24.9893 13.5557 25 15.9997 25C18.4442 25 18.75 24.9893 19.71 24.9456C20.6681 24.9018 21.3228 24.7501 21.8955 24.5275C22.4872 24.2976 22.9886 23.9894 23.4887 23.4888C23.9893 22.9885 24.2968 22.4864 24.5274 21.8946C24.7487 21.3222 24.9005 20.668 24.9455 19.7103C24.9887 18.7503 24.9999 18.4443 24.9999 16C24.9999 13.5558 24.9887 13.249 24.9455 12.289C24.9005 11.3309 24.7487 10.6769 24.5274 10.1046C24.2968 9.51269 23.9893 9.01056 23.4887 8.51031C22.988 8.00969 22.4874 7.70219 21.8949 7.4725C21.3212 7.24994 20.6668 7.09825 19.7087 7.05438C18.7487 7.01069 18.443 7 15.998 7H16.0008ZM15.1934 8.62185C15.4331 8.62147 15.7004 8.62185 16.0008 8.62185C18.4038 8.62185 18.6886 8.63047 19.6376 8.6736C20.5151 8.71372 20.9913 8.86035 21.3086 8.98354C21.7286 9.14666 22.028 9.34166 22.3428 9.65666C22.6578 9.97166 22.8528 10.2717 23.0163 10.6917C23.1395 11.0085 23.2863 11.4848 23.3262 12.3623C23.3694 13.311 23.3787 13.596 23.3787 15.9979C23.3787 18.3998 23.3694 18.6848 23.3262 19.6335C23.2861 20.511 23.1395 20.9873 23.0163 21.3042C22.8532 21.7242 22.6578 22.0232 22.3428 22.338C22.0278 22.653 21.7287 22.848 21.3086 23.0112C20.9917 23.1349 20.5151 23.2812 19.6376 23.3213C18.6888 23.3644 18.4038 23.3738 16.0008 23.3738C13.5976 23.3738 13.3128 23.3644 12.3641 23.3213C11.4866 23.2808 11.0103 23.1342 10.6929 23.011C10.2729 22.8479 9.97287 22.6529 9.65787 22.3379C9.34287 22.0229 9.14787 21.7236 8.98437 21.3034C8.86118 20.9865 8.71437 20.5103 8.67443 19.6328C8.6313 18.684 8.62268 18.399 8.62268 15.9957C8.62268 13.5923 8.6313 13.3088 8.67443 12.36C8.71455 11.4825 8.86118 11.0063 8.98437 10.689C9.14749 10.269 9.34287 9.96904 9.65787 9.65404C9.97287 9.33904 10.2729 9.14404 10.6929 8.98054C11.0101 8.85679 11.4866 8.71054 12.3641 8.67022C13.1943 8.63272 13.5161 8.62147 15.1934 8.6196V8.62185ZM20.8049 10.1162C20.2087 10.1162 19.7249 10.5994 19.7249 11.1959C19.7249 11.7921 20.2087 12.2759 20.8049 12.2759C21.4012 12.2759 21.8849 11.7921 21.8849 11.1959C21.8849 10.5996 21.4012 10.1162 20.8049 10.1162ZM16.0009 11.3781C13.4484 11.3781 11.379 13.4475 11.379 16C11.379 18.5524 13.4484 20.6209 16.0009 20.6209C18.5533 20.6209 20.622 18.5524 20.622 16C20.622 13.4475 18.5533 11.3781 16.0009 11.3781ZM16.0008 13C17.6576 13 19.0008 14.343 19.0008 16C19.0008 17.6567 17.6576 19 16.0008 19C14.3439 19 13.0008 17.6567 13.0008 16C13.0008 14.343 14.3439 13 16.0008 13Z" fill="white"/>
</svg>
