<svg width="131" height="41" viewBox="0 0 131 41" fill="none" xmlns="http://www.w3.org/2000/svg">
<path d="M3 8.54L4.96 4H8.9L10.86 8.54C11.54 10.1133 12.0733 11.62 12.46 13.06C12.86 14.5 13.06 15.9467 13.06 17.4V18H10.06V17.4C10.06 16.56 9.98 15.74 9.82 14.94H3.94C3.87333 15.34 3.81333 15.7467 3.76 16.16C3.72 16.56 3.7 16.9733 3.7 17.4V18H0.8V17.4C0.8 16.68 0.86 15.94 0.98 15.18C1.1 14.4067 1.26 13.64 1.46 12.88C1.67333 12.12 1.91333 11.3733 2.18 10.64C2.44667 9.90667 2.72 9.20667 3 8.54ZM4.66 12.3H9.12C8.94667 11.7667 8.78667 11.3 8.64 10.9C8.50667 10.5 8.34 10.0667 8.14 9.6L6.94 6.8H6.86L5.66 9.6C5.46 10.0667 5.28667 10.5 5.14 10.9C5.00667 11.3 4.84667 11.7667 4.66 12.3ZM15.5072 18V4H21.2872C21.9939 4 22.6339 4.10667 23.2072 4.32C23.7939 4.53333 24.2939 4.84 24.7072 5.24C25.1205 5.62667 25.4405 6.09333 25.6672 6.64C25.8939 7.17333 26.0072 7.76667 26.0072 8.42C26.0072 9.44667 25.7405 10.3133 25.2072 11.02C24.6739 11.7267 23.9605 12.2467 23.0672 12.58L23.5472 13.28C23.7072 13.5067 23.8672 13.74 24.0272 13.98C24.2005 14.2067 24.3872 14.4133 24.5872 14.6C24.8005 14.7867 25.0272 14.94 25.2672 15.06C25.5072 15.18 25.7739 15.24 26.0672 15.24C26.1472 15.24 26.2272 15.24 26.3072 15.24C26.3872 15.2267 26.4605 15.2133 26.5272 15.2V18.06C26.3272 18.1133 26.1272 18.1467 25.9272 18.16C25.7405 18.1867 25.5605 18.2 25.3872 18.2C24.8139 18.2 24.3005 18.0933 23.8472 17.88C23.3939 17.6533 22.9805 17.36 22.6072 17C22.2339 16.64 21.8872 16.2333 21.5672 15.78C21.2605 15.3133 20.9539 14.84 20.6472 14.36L19.7672 12.96H18.5072V18H15.5072ZM18.5072 10.32H20.9272C21.5539 10.32 22.0405 10.1533 22.3872 9.82C22.7339 9.48667 22.9072 9.04 22.9072 8.48C22.9072 7.92 22.7339 7.47333 22.3872 7.14C22.0405 6.80667 21.5539 6.64 20.9272 6.64H18.5072V10.32ZM34.8642 3.8C35.6909 3.8 36.4509 3.92 37.1442 4.16C37.8509 4.4 38.4642 4.74 38.9842 5.18C39.5176 5.60667 39.9509 6.12667 40.2842 6.74C40.6176 7.34 40.8242 8.01333 40.9042 8.76H37.9042C37.7976 8.05333 37.4709 7.49333 36.9242 7.08C36.3909 6.65333 35.7242 6.44 34.9242 6.44C33.8042 6.44 32.9042 6.85333 32.2242 7.68C31.5576 8.50667 31.2242 9.61333 31.2242 11C31.2242 11.68 31.3109 12.3 31.4842 12.86C31.6576 13.42 31.8976 13.9 32.2042 14.3C32.5242 14.7 32.9109 15.0133 33.3642 15.24C33.8176 15.4533 34.3242 15.56 34.8842 15.56C35.6842 15.56 36.3642 15.3533 36.9242 14.94C37.4976 14.5133 37.8376 13.9467 37.9442 13.24H40.9442C40.8776 13.9867 40.6776 14.6667 40.3442 15.28C40.0242 15.88 39.5909 16.4 39.0442 16.84C38.5109 17.2667 37.8842 17.6 37.1642 17.84C36.4442 18.08 35.6642 18.2 34.8242 18.2C33.8109 18.2 32.8909 18.0267 32.0642 17.68C31.2376 17.3333 30.5309 16.8467 29.9442 16.22C29.3576 15.58 28.9042 14.82 28.5842 13.94C28.2776 13.06 28.1242 12.0867 28.1242 11.02C28.1242 9.92667 28.2842 8.94 28.6042 8.06C28.9376 7.16667 29.3976 6.40667 29.9842 5.78C30.5842 5.14 31.2976 4.65333 32.1242 4.32C32.9509 3.97333 33.8642 3.8 34.8642 3.8ZM43.183 18V4H46.183V9.54H51.943V4H54.943V18H51.943V12.18H46.183V18H43.183ZM64.142 3.8C64.9687 3.8 65.7354 3.92 66.442 4.16C67.1487 4.38667 67.7687 4.71333 68.302 5.14C68.8354 5.56667 69.2687 6.08 69.602 6.68C69.9487 7.28 70.162 7.94667 70.242 8.68H67.242C67.1354 7.97333 66.802 7.42667 66.242 7.04C65.682 6.64 65.0154 6.44 64.242 6.44C63.6554 6.44 63.1287 6.55333 62.662 6.78C62.1954 7.00667 61.802 7.32667 61.482 7.74C61.162 8.15333 60.9154 8.64667 60.742 9.22C60.5687 9.78 60.482 10.3933 60.482 11.06C60.482 11.9 60.602 12.6067 60.842 13.18C61.0954 13.7533 61.4154 14.22 61.802 14.58C62.202 14.9267 62.6487 15.18 63.142 15.34C63.6354 15.4867 64.122 15.56 64.602 15.56C65.002 15.56 65.382 15.5133 65.742 15.42C66.1154 15.3267 66.442 15.2 66.722 15.04C67.002 14.8667 67.222 14.6667 67.382 14.44C67.5554 14.2133 67.642 13.9667 67.642 13.7V12.98H64.802V10.42H70.242V18H68.042L67.782 16.8C67.3287 17.2267 66.7687 17.5667 66.102 17.82C65.4487 18.0733 64.702 18.2 63.862 18.2C62.8754 18.2 61.982 18.0267 61.182 17.68C60.382 17.32 59.702 16.8267 59.142 16.2C58.582 15.56 58.1487 14.8067 57.842 13.94C57.5354 13.0733 57.382 12.12 57.382 11.08C57.382 10.0133 57.542 9.03333 57.862 8.14C58.182 7.24667 58.6354 6.48 59.222 5.84C59.8087 5.2 60.5154 4.7 61.342 4.34C62.182 3.98 63.1154 3.8 64.142 3.8ZM73.2197 12.88V4H76.2197V12.88C76.2197 13.8 76.4464 14.48 76.8997 14.92C77.3664 15.3467 78.0197 15.56 78.8597 15.56C79.6997 15.56 80.3597 15.3467 80.8397 14.92C81.333 14.48 81.5797 13.8 81.5797 12.88V4H84.5797V12.88C84.5797 13.76 84.4397 14.5333 84.1597 15.2C83.8797 15.8667 83.4864 16.4267 82.9797 16.88C82.4864 17.32 81.8864 17.6533 81.1797 17.88C80.473 18.0933 79.6997 18.2 78.8597 18.2C78.0197 18.2 77.253 18.0933 76.5597 17.88C75.8664 17.6533 75.273 17.32 74.7797 16.88C74.2864 16.4267 73.8997 15.8667 73.6197 15.2C73.353 14.5333 73.2197 13.76 73.2197 12.88ZM87.7533 18V4H90.7533V18H87.7533ZM103.602 4V6.8H99.6023V18H96.6023V6.8H92.6023V4H103.602ZM106.105 8.54L108.065 4H112.005L113.965 8.54C114.645 10.1133 115.179 11.62 115.565 13.06C115.965 14.5 116.165 15.9467 116.165 17.4V18H113.165V17.4C113.165 16.56 113.085 15.74 112.925 14.94H107.045C106.979 15.34 106.919 15.7467 106.865 16.16C106.825 16.56 106.805 16.9733 106.805 17.4V18H103.905V17.4C103.905 16.68 103.965 15.94 104.085 15.18C104.205 14.4067 104.365 13.64 104.565 12.88C104.779 12.12 105.019 11.3733 105.285 10.64C105.552 9.90667 105.825 9.20667 106.105 8.54ZM107.765 12.3H112.225C112.052 11.7667 111.892 11.3 111.745 10.9C111.612 10.5 111.445 10.0667 111.245 9.6L110.045 6.8H109.965L108.765 9.6C108.565 10.0667 108.392 10.5 108.245 10.9C108.112 11.3 107.952 11.7667 107.765 12.3ZM118.613 18V4H124.393C125.099 4 125.739 4.10667 126.313 4.32C126.899 4.53333 127.399 4.84 127.813 5.24C128.226 5.62667 128.546 6.09333 128.773 6.64C128.999 7.17333 129.113 7.76667 129.113 8.42C129.113 9.44667 128.846 10.3133 128.313 11.02C127.779 11.7267 127.066 12.2467 126.173 12.58L126.653 13.28C126.813 13.5067 126.973 13.74 127.133 13.98C127.306 14.2067 127.493 14.4133 127.693 14.6C127.906 14.7867 128.133 14.94 128.373 15.06C128.613 15.18 128.879 15.24 129.173 15.24C129.253 15.24 129.333 15.24 129.413 15.24C129.493 15.2267 129.566 15.2133 129.633 15.2V18.06C129.433 18.1133 129.233 18.1467 129.033 18.16C128.846 18.1867 128.666 18.2 128.493 18.2C127.919 18.2 127.406 18.0933 126.953 17.88C126.499 17.6533 126.086 17.36 125.713 17C125.339 16.64 124.993 16.2333 124.673 15.78C124.366 15.3133 124.059 14.84 123.753 14.36L122.873 12.96H121.613V18H118.613ZM121.613 10.32H124.033C124.659 10.32 125.146 10.1533 125.493 9.82C125.839 9.48667 126.013 9.04 126.013 8.48C126.013 7.92 125.839 7.47333 125.493 7.14C125.146 6.80667 124.659 6.64 124.033 6.64H121.613V10.32Z" fill="white"/>
<path d="M83.9268 37.3975H83.7773C83.4492 37.3975 83.0391 37.21 82.5469 36.835C82.1719 36.5479 81.8408 36.1846 81.5537 35.7451C81.7236 35.4053 81.8086 35.2148 81.8086 35.1738C81.8086 35.1211 81.75 35.0947 81.6328 35.0947C81.5273 35.0947 81.4746 35.1211 81.4746 35.1738C81.4746 35.2207 81.4629 35.3027 81.4395 35.4199C81.3926 35.6953 81.3574 35.8418 81.334 35.8594C81.3105 35.877 81.2812 35.8857 81.2461 35.8857C81.1172 35.8857 80.9062 35.7949 80.6133 35.6133C80.4727 35.5371 80.3232 35.4199 80.165 35.2617L80.2441 35.0244C80.3027 34.8604 80.332 34.7402 80.332 34.6641C80.332 34.5469 80.3467 34.4443 80.376 34.3564C80.417 34.2393 80.4434 34.1279 80.4551 34.0225C80.4668 33.917 80.4932 33.7441 80.5342 33.5039C80.6396 32.9004 80.7188 32.5166 80.7715 32.3525L80.8154 32.1943C80.9443 31.6494 81.1523 31.0225 81.4395 30.3135C81.5215 30.1377 81.5625 30.0439 81.5625 30.0322C81.5625 30.0205 81.6035 29.9238 81.6855 29.7422C81.8496 29.3555 82.0459 28.9248 82.2744 28.4502C82.6143 27.7471 82.8896 27.1201 83.1006 26.5693C83.1533 26.4229 83.2266 26.2646 83.3203 26.0947L83.7158 25.3652C83.8857 25.0371 84 24.8438 84.0586 24.7852C84.252 24.7852 84.5098 24.8789 84.832 25.0664C85.0078 25.1777 85.0957 25.2627 85.0957 25.3213C85.0957 25.4092 85.0107 25.6113 84.8408 25.9277L83.8301 27.9492L83.7861 28.0459C83.7275 28.1689 83.6719 28.2979 83.6191 28.4326L83.3555 29.0127L83.2939 29.127C82.8486 30.0645 82.6055 30.5947 82.5645 30.7178C82.4941 30.9053 82.4414 31.0723 82.4062 31.2188C82.3887 31.2715 82.3711 31.3037 82.3535 31.3154C82.3301 31.3623 82.3184 31.4121 82.3184 31.4648C82.3008 31.5352 82.2773 31.5791 82.248 31.5967C82.2188 31.6084 82.1982 31.6494 82.1865 31.7197C82.1748 31.7549 82.1689 31.79 82.1689 31.8252V31.834C82.1748 31.834 82.2041 31.793 82.2568 31.7109C82.3154 31.6289 82.3857 31.5264 82.4678 31.4033L82.4766 31.377C82.9395 30.6328 83.3232 30.0791 83.6279 29.7158C84.1318 29.124 84.668 28.8281 85.2363 28.8281C85.6406 28.8281 86.0654 28.9746 86.5107 29.2676C86.7217 29.3906 86.8564 29.5693 86.915 29.8037C86.9619 29.9736 86.9854 30.2402 86.9854 30.6035L86.9766 31.043C86.9766 31.7754 86.877 32.4668 86.6777 33.1172C86.4844 33.7676 86.127 34.6084 85.6055 35.6396C85.3301 36.1904 85.1045 36.6328 84.9287 36.9668C84.8232 37.1484 84.7412 37.2627 84.6826 37.3096C84.5654 37.3682 84.3135 37.3975 83.9268 37.3975ZM83.4961 36.668C83.5371 36.6562 83.5576 36.624 83.5576 36.5713C83.5576 36.4834 83.5811 36.4395 83.6279 36.4395L83.6104 36.5098V36.5186C83.6104 36.5303 83.6162 36.5361 83.6279 36.5361C83.7158 36.5361 84.0146 36.0146 84.5244 34.9717C84.8408 34.3447 85.0693 33.8613 85.21 33.5215C85.3564 33.1758 85.4795 32.8184 85.5791 32.4492C85.7139 32.0156 85.7988 31.6787 85.834 31.4385C85.8633 31.251 85.8779 31.0195 85.8779 30.7441C85.8779 30.4043 85.8721 30.0996 85.8604 29.8301C85.8428 29.6367 85.8047 29.54 85.7461 29.54C85.6406 29.54 85.4268 29.6748 85.1045 29.9443C84.7822 30.2139 84.4629 30.5771 84.1465 31.0342C83.8359 31.4854 83.6689 31.749 83.6455 31.8252C83.5811 31.9541 83.5049 32.0801 83.417 32.2031C83.3174 32.3555 83.1914 32.5781 83.0391 32.8711C82.8984 33.1172 82.8076 33.2666 82.7666 33.3193C82.7314 33.3721 82.6113 33.6064 82.4062 34.0225C82.2012 34.4385 82.0986 34.6699 82.0986 34.7168C82.0986 34.7285 82.0957 34.7373 82.0898 34.7432H82.0371C82.0078 34.7432 81.9873 34.7842 81.9756 34.8662C81.9756 34.8896 81.9785 34.9014 81.9844 34.9014C82.0137 34.9014 82.0869 34.8457 82.2041 34.7344C82.292 34.6523 82.6318 34.3154 83.2236 33.7236C83.417 33.7998 83.54 33.8379 83.5928 33.8379L83.6279 33.8291C83.6396 33.8291 83.6455 33.835 83.6455 33.8467C83.6455 33.8584 83.6572 33.876 83.6807 33.8994C83.71 33.9229 83.748 33.9434 83.7949 33.9609C83.8477 33.9727 83.9033 33.999 83.9619 34.04C84.0205 34.0811 84.0762 34.125 84.1289 34.1719C84.1816 34.2188 84.2344 34.2686 84.2871 34.3213L83.7422 34.8223C83.1211 35.4141 82.8105 35.8594 82.8105 36.1582C82.8105 36.2344 82.8252 36.3047 82.8545 36.3691C82.9131 36.5684 83.0186 36.668 83.1709 36.668C83.2412 36.668 83.3203 36.6475 83.4082 36.6064C83.4375 36.5947 83.458 36.5889 83.4697 36.5889C83.4756 36.5889 83.4785 36.5918 83.4785 36.5977L83.4521 36.668H83.4961ZM90.9348 36.9053C90.5657 36.9053 90.1731 36.7207 89.7571 36.3516C89.1946 35.8535 88.8489 35.2119 88.72 34.4268C88.7082 34.3623 88.6936 34.2656 88.676 34.1367L88.6496 33.9434C88.6321 33.832 88.6233 33.7529 88.6233 33.7061C88.6233 33.5947 88.6409 33.3369 88.676 32.9326C88.6995 32.6631 88.7493 32.4111 88.8254 32.1768C88.9426 31.8252 89.0481 31.5674 89.1418 31.4033C89.2063 31.2861 89.2385 31.207 89.2385 31.166C89.2385 31.1191 89.2561 31.0752 89.2913 31.0342C89.3323 30.9932 89.3762 30.9404 89.4231 30.876C89.5344 30.7178 89.5901 30.6299 89.5901 30.6123C89.5901 30.5303 89.7805 30.3164 90.1614 29.9707C90.4602 29.707 90.8 29.502 91.1809 29.3555C91.427 29.2617 91.6086 29.2148 91.7258 29.2148C91.8079 29.2148 91.9338 29.2529 92.1038 29.3291C92.2737 29.4053 92.4407 29.499 92.6047 29.6104C92.7454 29.7158 92.8977 29.8652 93.0618 30.0586C93.3137 30.3516 93.4455 30.583 93.4573 30.7529C93.4573 30.8057 93.4397 30.8643 93.4045 30.9287C93.3635 31.04 93.343 31.1279 93.343 31.1924C93.343 31.3096 93.2522 31.5088 93.0705 31.79C92.7248 32.3232 92.3352 32.751 91.9016 33.0732C91.3684 33.4658 91.0227 33.6621 90.8645 33.6621C90.8235 33.6621 90.7473 33.627 90.636 33.5566C90.3371 33.3691 90.1614 33.2227 90.1086 33.1172C90.05 33.0293 89.9973 32.9648 89.9504 32.9238C89.9036 32.877 89.8801 32.8389 89.8801 32.8096C89.8801 32.7979 89.886 32.7891 89.8977 32.7832L89.9504 32.8096C89.9973 32.8096 90.0852 32.7773 90.2141 32.7129C90.6067 32.5137 91.0227 32.1885 91.4621 31.7373C91.7493 31.4385 91.9543 31.1895 92.0774 30.9902C92.2063 30.7617 92.2942 30.5771 92.3411 30.4365C92.3938 30.29 92.4202 30.1992 92.4202 30.1641C92.4202 30.1523 92.4172 30.1436 92.4114 30.1377C92.4055 30.126 92.3762 30.1201 92.3235 30.1201C92.177 30.1201 91.9631 30.2051 91.6819 30.375C91.4065 30.5391 91.1399 30.7441 90.8821 30.9902C90.6711 31.1953 90.4983 31.4062 90.3635 31.623C90.2288 31.834 90.0969 32.1035 89.968 32.4316C89.7161 33.0527 89.5901 33.5889 89.5901 34.04L89.5989 34.2334C89.6457 34.6787 89.6838 34.9512 89.7131 35.0508C89.719 35.0625 89.7219 35.0801 89.7219 35.1035C89.7395 35.1504 89.7512 35.1973 89.7571 35.2441C89.7864 35.3848 89.8362 35.543 89.9065 35.7188C90.0178 35.9941 90.094 36.1318 90.135 36.1318C90.217 36.1318 90.5012 35.9824 90.9875 35.6836C91.3039 35.4961 91.6086 35.2852 91.9016 35.0508C92.0071 34.9746 92.0598 34.916 92.0598 34.875C92.0598 34.8047 92.136 34.7695 92.2883 34.7695L92.4465 34.7871C92.7102 34.8281 92.9182 34.9072 93.0705 35.0244C93.2288 35.1416 93.3079 35.2676 93.3079 35.4023C93.3079 35.4844 93.2434 35.5811 93.1145 35.6924C92.9856 35.8037 92.6633 36.041 92.1477 36.4043C91.7375 36.7383 91.3332 36.9053 90.9348 36.9053ZM89.845 30.375C89.8684 30.375 89.9504 30.3105 90.0911 30.1816L90.3371 29.9443C90.3547 29.9326 90.3635 29.9268 90.3635 29.9268C90.3694 29.9209 90.3723 29.915 90.3723 29.9092H90.3284C90.2991 29.9092 90.2082 29.9766 90.0559 30.1113C89.9094 30.2402 89.8362 30.3252 89.8362 30.3662C89.8362 30.3721 89.8391 30.375 89.845 30.375ZM95.895 36.8789C95.8364 36.8789 95.7807 36.8613 95.728 36.8262L95.605 36.7734C95.2241 36.627 94.9839 36.4834 94.8843 36.3428C94.7788 36.2021 94.7261 36.0059 94.7261 35.7539C94.7261 35.5957 94.7026 35.4932 94.6557 35.4463C94.6089 35.3936 94.5854 35.3555 94.5854 35.332C94.5854 35.3203 94.5884 35.3145 94.5942 35.3145C94.6118 35.3145 94.6323 35.3232 94.6557 35.3408C94.6792 35.3584 94.6968 35.3672 94.7085 35.3672C94.7202 35.3672 94.729 35.3379 94.7348 35.2793L94.7261 34.8838V34.7695C94.7261 34.7109 94.729 34.6816 94.7348 34.6816C94.7407 34.6816 94.7524 34.6611 94.77 34.6201C94.7876 34.5732 94.8052 34.5117 94.8227 34.4355C94.8403 34.3594 94.8491 34.292 94.8491 34.2334C94.8491 34.1748 94.8403 34.1338 94.8227 34.1104C94.7993 34.0811 94.7876 34.0635 94.7876 34.0576L94.8227 34.0752C94.8579 34.0752 94.8989 33.958 94.9458 33.7236C95.0337 33.3076 95.1567 32.8359 95.3149 32.3086C95.3501 32.209 95.3823 32.1094 95.4116 32.0098C95.4409 31.9043 95.4643 31.8252 95.4819 31.7725C95.4936 31.7139 95.5083 31.6611 95.5259 31.6143C95.5376 31.5674 95.5493 31.5352 95.561 31.5176C95.5786 31.4941 95.5962 31.4619 95.6138 31.4209C95.6313 31.374 95.646 31.3271 95.6577 31.2803C95.6753 31.2334 95.687 31.1953 95.6929 31.166C95.6987 31.1309 95.7016 31.1104 95.7016 31.1045C95.6665 31.1045 95.6255 31.1631 95.5786 31.2803C95.5317 31.3916 95.5024 31.4473 95.4907 31.4473V31.4385C95.4907 31.3799 95.5405 31.2451 95.6401 31.0342C95.8042 30.6709 95.9682 30.3516 96.1323 30.0762C96.3784 29.6895 96.7417 29.1885 97.2221 28.5732C97.3921 28.3564 97.5884 28.084 97.811 27.7559C97.9282 27.5801 98.0893 27.3809 98.2944 27.1582C98.7866 26.6133 99.0971 26.335 99.2261 26.3232C99.2554 26.3232 99.3286 26.3496 99.4458 26.4023C99.563 26.4492 99.6802 26.5049 99.7973 26.5693C99.9145 26.6338 100.002 26.6865 100.061 26.7275C100.143 26.8096 100.184 26.9297 100.184 27.0879C100.184 27.334 100.09 27.6709 99.9028 28.0986C99.8677 28.1689 99.8266 28.2686 99.7798 28.3975C99.6977 28.585 99.5073 28.9131 99.2085 29.3818C98.8745 29.915 98.438 30.4365 97.8989 30.9463C97.4888 31.333 97.0845 31.667 96.686 31.9482C96.6098 32.001 96.522 32.1914 96.4223 32.5195C96.4048 32.5898 96.3901 32.6338 96.3784 32.6514L96.1499 33.4863C96.021 33.9844 95.9507 34.3418 95.9389 34.5586C95.9272 34.7461 95.9038 34.8662 95.8686 34.9189C95.8335 34.9717 95.8159 35.1357 95.8159 35.4111C95.8159 35.8096 95.8481 36.0791 95.9126 36.2197C95.9536 36.2959 95.9741 36.3604 95.9741 36.4131C95.9741 36.4717 95.9975 36.5479 96.0444 36.6416C96.0796 36.7061 96.0971 36.75 96.0971 36.7734C96.0971 36.7969 96.0854 36.8145 96.062 36.8262C96.0151 36.8613 95.9595 36.8789 95.895 36.8789ZM96.9497 31.2451C96.9731 31.2451 97.0259 31.2158 97.1079 31.1572L97.2837 31.0166C97.3423 30.958 97.4214 30.8936 97.521 30.8232C97.6499 30.7236 97.9194 30.4365 98.3296 29.9619L98.5845 29.6631C98.7895 29.4346 99.0122 29.0801 99.2524 28.5996C99.4985 28.0781 99.6216 27.7676 99.6216 27.668V27.6592H99.6128C99.5893 27.6592 99.5454 27.6885 99.4809 27.7471C99.3052 27.9053 99.1499 28.0898 99.0151 28.3008C98.5522 28.9395 98.2475 29.3438 98.1011 29.5137C97.9897 29.6426 97.8169 29.8711 97.5825 30.1992L97.4067 30.4365C97.0962 30.8994 96.9409 31.166 96.9409 31.2363C96.9409 31.2422 96.9438 31.2451 96.9497 31.2451ZM100.653 40.4297L100.583 40.4121C100.401 40.3828 100.096 40.2598 99.6687 40.043C99.1355 39.7734 98.7868 39.5098 98.6228 39.252C98.5466 39.1289 98.5085 38.9971 98.5085 38.8564C98.5085 38.792 98.5173 38.7188 98.5349 38.6367C98.5525 38.5547 98.5613 38.499 98.5613 38.4697L98.5525 38.4521C98.5525 38.4287 98.5671 38.3994 98.5964 38.3643C98.6491 38.2354 98.6902 38.0654 98.7195 37.8545C98.737 37.7373 98.7634 37.623 98.7986 37.5117C98.8454 37.3652 98.8952 37.2568 98.948 37.1865C99.0476 36.999 99.1296 36.873 99.1941 36.8086C99.3171 36.6914 99.3991 36.6328 99.4402 36.6328C99.446 36.6328 99.4548 36.6357 99.4665 36.6416C99.4724 36.6475 99.4958 36.6504 99.5368 36.6504C99.572 36.6504 99.6189 36.6445 99.6775 36.6328C99.7302 36.6211 99.7859 36.6152 99.8445 36.6152C99.9734 36.6152 100.108 36.6533 100.249 36.7295C100.395 36.8057 100.495 36.9346 100.548 37.1162L100.556 37.1777C100.556 37.2363 100.524 37.2891 100.46 37.3359C100.243 37.4941 100.082 37.8164 99.9763 38.3027L99.8269 38.9883C99.8034 39.1055 99.7917 39.1758 99.7917 39.1992C99.7917 39.2285 99.8005 39.2549 99.8181 39.2783C99.8298 39.3018 99.8562 39.3281 99.8972 39.3574C99.9382 39.3926 99.9704 39.4219 99.9939 39.4453C100.041 39.4805 100.07 39.498 100.082 39.498C100.093 39.498 100.199 39.3984 100.398 39.1992C100.732 38.8828 101.104 38.3027 101.514 37.459C101.667 37.1426 101.755 36.9844 101.778 36.9844C101.784 36.9844 101.787 36.9902 101.787 37.002L101.769 37.0898C101.769 37.1074 101.772 37.1162 101.778 37.1162C101.784 37.1162 101.796 37.1074 101.813 37.0898C101.854 37.0488 101.875 36.9785 101.875 36.8789C101.875 36.7793 101.881 36.7295 101.892 36.7295C101.91 36.7295 101.927 36.7178 101.945 36.6943C101.968 36.6768 101.98 36.6504 101.98 36.6152C101.98 36.6094 101.98 36.6035 101.98 36.5977C101.98 36.5977 101.977 36.5977 101.971 36.5977L101.936 36.6152C101.919 36.6152 101.91 36.5947 101.91 36.5537C101.91 36.5244 101.922 36.5098 101.945 36.5098L101.998 36.5186C102.039 36.5186 102.059 36.498 102.059 36.457C102.059 36.4219 102.042 36.4043 102.007 36.4043L101.98 36.4131C101.963 36.4131 101.954 36.4043 101.954 36.3867C101.954 36.3516 101.971 36.334 102.007 36.334C102.048 36.334 102.068 36.2871 102.068 36.1934L102.059 36.0527C102.059 36.0293 102.062 36.0176 102.068 36.0176C102.074 36.0176 102.083 36.0264 102.094 36.0439C102.106 36.0615 102.118 36.0703 102.13 36.0703C102.159 36.0703 102.176 36.0176 102.182 35.9121C102.188 35.8828 102.188 35.8623 102.182 35.8506C102.176 35.833 102.174 35.8096 102.174 35.7803C102.174 35.751 102.179 35.7012 102.191 35.6309C102.203 35.5547 102.223 35.4639 102.253 35.3584C102.288 35.2529 102.32 35.1738 102.349 35.1211C102.379 35.0684 102.396 35.0303 102.402 35.0068C102.408 34.9834 102.411 34.9688 102.411 34.9629C102.411 34.957 102.408 34.9541 102.402 34.9541C102.396 34.9541 102.393 34.9482 102.393 34.9365C102.393 34.8779 102.414 34.7959 102.455 34.6904C102.566 34.4033 102.622 34.2305 102.622 34.1719C102.622 34.1602 102.619 34.1543 102.613 34.1543C102.59 34.1543 102.519 34.2012 102.402 34.2949C102.074 34.5352 101.892 34.6553 101.857 34.6553C101.822 34.6553 101.52 34.8896 100.952 35.3584C100.823 35.4639 100.723 35.5166 100.653 35.5166C100.46 35.5166 100.143 35.3672 99.7038 35.0684C99.5105 34.9395 99.3728 34.8164 99.2907 34.6992C99.1736 34.5586 99.0827 34.2627 99.0183 33.8115V33.7764C99.0183 33.6709 99.0652 33.5068 99.1589 33.2842C99.2527 33.0557 99.3698 32.8271 99.5105 32.5986C99.9675 31.9189 100.457 31.3184 100.978 30.7969C101.136 30.6387 101.216 30.5479 101.216 30.5244C101.216 30.4482 101.312 30.3369 101.506 30.1904C101.705 30.0439 101.922 29.9121 102.156 29.7949C102.396 29.6719 102.572 29.6104 102.683 29.6104C102.847 29.6104 103.076 29.6719 103.369 29.7949C103.662 29.918 103.887 30.0498 104.046 30.1904C104.11 30.2549 104.154 30.2871 104.177 30.2871C104.207 30.2871 104.236 30.2666 104.265 30.2256C104.318 30.1904 104.344 30.1523 104.344 30.1113L104.336 30.085C104.336 30.0674 104.35 30.0586 104.38 30.0586C104.415 30.0586 104.432 30.0293 104.432 29.9707C104.432 29.9062 104.459 29.8389 104.511 29.7686C104.564 29.6924 104.591 29.6104 104.591 29.5225C104.602 29.4404 104.629 29.3994 104.67 29.3994H104.696C104.708 29.3994 104.714 29.3936 104.714 29.3818L104.696 29.3027C104.696 29.2734 104.711 29.2354 104.74 29.1885C104.769 29.1416 104.807 29.0947 104.854 29.0479C104.907 28.9951 104.951 28.9688 104.986 28.9688C104.992 28.9688 104.995 28.9717 104.995 28.9775C104.995 28.9951 104.951 29.0391 104.863 29.1094C104.781 29.1738 104.74 29.2178 104.74 29.2412C104.74 29.2471 104.74 29.25 104.74 29.25C104.752 29.25 104.772 29.2412 104.801 29.2236C104.837 29.2061 104.878 29.1797 104.925 29.1445C104.971 29.1094 105.015 29.0801 105.056 29.0566C105.097 29.0273 105.127 29.0127 105.144 29.0127C105.232 29.0127 105.373 29.0859 105.566 29.2324C105.66 29.3027 105.754 29.4082 105.847 29.5488C105.701 29.6953 105.598 29.8184 105.54 29.918C105.428 30.123 105.373 30.2812 105.373 30.3926C105.373 30.4102 105.376 30.4277 105.382 30.4453C105.393 30.4629 105.399 30.4746 105.399 30.4805C105.399 30.4863 105.396 30.4893 105.39 30.4893L105.355 30.4805C105.338 30.4805 105.311 30.5039 105.276 30.5508C105.241 30.5918 105.223 30.6299 105.223 30.665C105.223 30.6768 105.226 30.6826 105.232 30.6826C105.244 30.6826 105.256 30.6797 105.267 30.6738C105.285 30.6621 105.297 30.6562 105.302 30.6562C105.308 30.6562 105.311 30.6621 105.311 30.6738C105.311 30.7031 105.282 30.7734 105.223 30.8848C105.118 31.084 105.036 31.248 104.977 31.377C104.919 31.5059 104.889 31.5791 104.889 31.5967C104.889 31.6084 104.86 31.6816 104.801 31.8164C104.632 32.209 104.47 32.5723 104.318 32.9062C104.248 33.0645 104.163 33.2783 104.063 33.5479C103.835 34.1689 103.694 34.6289 103.641 34.9277C103.624 35.0156 103.583 35.1562 103.518 35.3496C103.413 35.6191 103.313 35.959 103.219 36.3691C103.038 37.125 102.759 37.8574 102.384 38.5664C101.945 39.4102 101.491 39.9727 101.022 40.2539C100.835 40.3711 100.712 40.4297 100.653 40.4297ZM100.908 38.7598C100.92 38.7598 100.94 38.7393 100.969 38.6982C101.087 38.5518 101.145 38.4492 101.145 38.3906L101.136 38.3818C101.131 38.3818 101.09 38.4375 101.013 38.5488C100.943 38.666 100.908 38.7363 100.908 38.7598ZM100.099 34.5762C100.14 34.5762 100.234 34.5176 100.381 34.4004C100.474 34.3066 100.65 34.1777 100.908 34.0137C101.072 33.9141 101.175 33.8643 101.216 33.8643C101.262 33.8643 101.353 33.7998 101.488 33.6709C101.828 33.3545 102.092 33.0381 102.279 32.7217C102.349 32.6045 102.417 32.5049 102.481 32.4229C102.546 32.335 102.584 32.291 102.595 32.291C102.619 32.291 102.657 32.2998 102.71 32.3174C102.768 32.335 102.839 32.3643 102.921 32.4053C103.003 32.4404 103.091 32.4756 103.184 32.5107C103.266 32.3936 103.372 32.2002 103.501 31.9307C103.694 31.5322 103.811 31.2598 103.852 31.1133C103.852 31.0957 103.893 31.0107 103.975 30.8584C104.034 30.7236 104.063 30.6357 104.063 30.5947C104.063 30.5771 104.034 30.5449 103.975 30.498L103.589 30.2783L103.123 30.5156C102.59 30.7969 102.106 31.1777 101.673 31.6582C101.309 32.0801 100.993 32.4639 100.723 32.8096C100.46 33.1494 100.328 33.3398 100.328 33.3809C100.328 33.3984 100.266 33.5303 100.143 33.7764C100.044 33.958 99.9939 34.1016 99.9939 34.207C99.9939 34.2363 99.9968 34.2627 100.003 34.2861C100.009 34.3037 100.011 34.3184 100.011 34.3301C100.029 34.4941 100.058 34.5762 100.099 34.5762ZM107.881 37.8193C107.846 37.8193 107.828 37.8018 107.828 37.7666C107.828 37.749 107.831 37.7373 107.837 37.7314C107.843 37.7314 107.849 37.7314 107.854 37.7314C107.86 37.7314 107.869 37.7344 107.881 37.7402C107.893 37.752 107.901 37.7607 107.907 37.7666C107.919 37.7783 107.925 37.7871 107.925 37.793C107.925 37.8105 107.91 37.8193 107.881 37.8193ZM107.978 38.2148C107.966 38.2148 107.951 38.1973 107.934 38.1621C107.898 38.0801 107.881 37.998 107.881 37.916C107.881 37.8984 107.884 37.8896 107.89 37.8896C107.895 37.8896 107.919 37.9395 107.96 38.0391C107.978 38.0918 107.986 38.1328 107.986 38.1621C107.986 38.1973 107.983 38.2148 107.978 38.2148ZM109.164 39.6387H108.953C108.742 39.6387 108.622 39.627 108.593 39.6035C108.569 39.5859 108.534 39.5332 108.487 39.4453C108.358 39.2168 108.294 39.0732 108.294 39.0146L108.303 38.9795L108.294 38.9707L108.276 38.9795C108.253 38.9795 108.224 38.9473 108.188 38.8828C108.159 38.8242 108.144 38.7686 108.144 38.7158L108.153 38.6543C108.153 38.625 108.144 38.6104 108.127 38.6104C108.109 38.6104 108.092 38.5928 108.074 38.5576C108.057 38.5283 108.048 38.4961 108.048 38.4609C108.048 38.4258 108.054 38.4023 108.065 38.3906C108.077 38.3848 108.083 38.3672 108.083 38.3379C108.083 38.2852 108.068 38.2119 108.039 38.1182C107.969 37.8369 107.916 37.6143 107.881 37.4502C107.775 37.1162 107.723 36.6621 107.723 36.0879C107.723 35.4727 107.854 34.8428 108.118 34.1982C108.265 33.8525 108.493 33.4307 108.804 32.9326C108.968 32.6689 109.085 32.4639 109.155 32.3174C109.208 32.1885 109.234 32.0771 109.234 31.9834C109.234 31.8604 109.193 31.7168 109.111 31.5527C108.982 31.2715 108.774 31.002 108.487 30.7441C108.399 30.6562 108.335 30.6123 108.294 30.6123C108.241 30.6123 108.209 30.7529 108.197 31.0342C108.18 31.2568 108.165 31.3916 108.153 31.4385C108.124 31.4619 108.098 31.5645 108.074 31.7461C107.975 32.332 107.749 32.9971 107.397 33.7412C107.222 34.0928 107.131 34.292 107.125 34.3389C107.119 34.3857 107.081 34.4414 107.011 34.5059C106.905 34.6172 106.794 34.6729 106.677 34.6729C106.636 34.6729 106.586 34.6641 106.527 34.6465C106.428 34.6172 106.378 34.5732 106.378 34.5146C106.378 34.4854 106.395 34.459 106.431 34.4355C106.46 34.4121 106.498 34.3564 106.545 34.2686C106.674 34.0283 106.738 33.873 106.738 33.8027C106.738 33.791 106.756 33.7383 106.791 33.6445C106.984 33.1934 107.128 32.8037 107.222 32.4756C107.386 31.7314 107.468 31.0459 107.468 30.4189V30.3223C107.468 30.0469 107.474 29.9004 107.485 29.8828C107.497 29.8652 107.503 29.8506 107.503 29.8389L107.494 29.7773C107.494 29.6133 107.778 29.5312 108.347 29.5312H108.645L108.944 29.8301C109.103 30.0059 109.366 30.2607 109.735 30.5947C110.286 31.0811 110.561 31.585 110.561 32.1064L110.544 32.2559C110.532 32.3262 110.447 32.4814 110.289 32.7217C109.855 33.3779 109.589 33.832 109.489 34.084C109.331 34.3945 109.196 34.8105 109.085 35.332L109.05 35.4639C108.997 35.6865 108.971 35.8887 108.971 36.0703C108.971 36.1523 108.977 36.2314 108.988 36.3076C109.053 37.0459 109.111 37.5322 109.164 37.7666C109.328 38.4697 109.539 38.9443 109.797 39.1904C109.838 39.2432 109.873 39.29 109.902 39.3311C109.937 39.3721 109.955 39.3984 109.955 39.4102C109.955 39.4395 109.908 39.4805 109.814 39.5332C109.756 39.5918 109.539 39.627 109.164 39.6387ZM116.216 36.1846C116.152 36.1846 116.111 36.1729 116.093 36.1494C116.075 36.126 116.055 36.1143 116.031 36.1143C116.014 36.1143 115.996 36.1172 115.979 36.123C115.967 36.1289 115.958 36.1318 115.952 36.1318C115.929 36.1318 115.917 36.1172 115.917 36.0879C115.917 36.0645 115.847 36.0234 115.706 35.9648C115.589 35.9062 115.501 35.8477 115.443 35.7891C115.431 35.7656 115.407 35.7422 115.372 35.7188C115.337 35.6895 115.305 35.6631 115.276 35.6396C115.217 35.6221 115.188 35.5898 115.188 35.543L115.196 35.4814C115.196 35.2939 115.188 35.1855 115.17 35.1562L115.153 34.8486L114.652 35.2617C114.101 35.7422 113.696 35.9824 113.439 35.9824C113.204 35.9824 112.897 35.8477 112.516 35.5781C112.246 35.4023 112.056 35.1973 111.945 34.9629C111.915 34.8574 111.901 34.6729 111.901 34.4092C111.901 33.7002 112.185 32.7773 112.753 31.6406C113.275 30.5742 113.902 29.8652 114.634 29.5137L115.003 29.2764C115.097 29.2002 115.223 29.1621 115.381 29.1621C115.475 29.1621 115.598 29.1797 115.75 29.2148C116.084 29.3027 116.33 29.3965 116.488 29.4961C116.535 29.5488 116.67 29.6514 116.893 29.8037L117.174 29.4346C117.362 29.1885 117.499 29.0654 117.587 29.0654C117.675 29.0654 117.851 29.1416 118.114 29.2939C118.249 29.376 118.402 29.4844 118.571 29.6191C118.355 29.9355 118.237 30.0967 118.22 30.1025C118.202 30.1084 118.164 30.1699 118.106 30.2871C117.994 30.5156 117.804 30.8291 117.534 31.2275C117.446 31.374 117.403 31.459 117.403 31.4824C117.403 31.5 117.344 31.5996 117.227 31.7812C117.156 31.9043 117.071 32.083 116.972 32.3174L116.866 32.5547C116.784 32.7656 116.74 32.9004 116.735 32.959C116.723 33.0586 116.696 33.1494 116.655 33.2314C116.579 33.46 116.488 33.9551 116.383 34.7168C116.336 35.0508 116.313 35.3467 116.313 35.6045C116.313 35.7979 116.33 35.9268 116.365 35.9912C116.377 36.0146 116.383 36.0469 116.383 36.0879C116.383 36.0996 116.377 36.1143 116.365 36.1318C116.354 36.1494 116.33 36.1611 116.295 36.167C116.266 36.1787 116.239 36.1846 116.216 36.1846ZM112.946 35.0859C112.976 35.0859 113.031 35.0566 113.113 34.998L113.421 34.7783L113.861 34.418C114.341 34.0195 114.581 33.7764 114.581 33.6885C114.581 33.6475 114.608 33.627 114.66 33.627C114.748 33.627 114.953 33.7002 115.276 33.8467C115.299 33.8467 115.381 33.498 115.522 32.8008C115.545 32.6895 115.577 32.5605 115.618 32.4141C115.724 32.0566 115.791 31.8633 115.821 31.834C115.85 31.8047 115.882 31.7314 115.917 31.6143C115.993 31.3799 116.216 30.9434 116.585 30.3047C116.673 30.1406 116.717 30.0439 116.717 30.0146C116.717 29.9854 116.62 29.9619 116.427 29.9443C116.269 29.9443 116.067 30 115.821 30.1113C115.58 30.2168 115.349 30.3545 115.126 30.5244C114.904 30.6943 114.646 30.9697 114.353 31.3506C114.066 31.7314 113.828 32.1035 113.641 32.4668C113.5 32.7422 113.36 33.0967 113.219 33.5303C113.008 34.1807 112.903 34.6641 112.903 34.9805C112.903 35.0508 112.914 35.0859 112.938 35.0859H112.946ZM122.618 37.0547C122.495 37.0547 122.389 37.0371 122.301 37.002C122.219 36.9668 122.178 36.9434 122.178 36.9316H122.187C122.187 36.9082 122.12 36.8291 121.985 36.6943C121.692 36.3955 121.531 36.0615 121.501 35.6924C121.478 35.5166 121.466 35.3936 121.466 35.3232C121.466 35.2764 121.484 35.1035 121.519 34.8047C121.548 34.4766 121.572 34.3037 121.589 34.2861C121.595 34.2627 121.604 34.2363 121.616 34.207C121.627 34.1719 121.639 34.1162 121.651 34.04C121.715 33.6064 121.771 33.3135 121.818 33.1611C121.865 32.9854 121.912 32.8682 121.958 32.8096C121.982 32.7803 121.994 32.7568 121.994 32.7393C121.994 32.7275 121.985 32.7158 121.967 32.7041C121.956 32.6924 121.95 32.6689 121.95 32.6338C121.95 32.54 121.973 32.4639 122.02 32.4053C122.038 32.376 122.064 32.3057 122.099 32.1943C122.181 31.9131 122.222 31.7227 122.222 31.623C122.222 31.5645 122.237 31.5352 122.266 31.5352C122.301 31.5352 122.319 31.5059 122.319 31.4473C122.319 31.3887 122.333 31.3389 122.363 31.2979C122.398 31.2568 122.415 31.1924 122.415 31.1045C122.427 30.9932 122.451 30.9316 122.486 30.9199C122.527 30.9082 122.547 30.8848 122.547 30.8496L122.539 30.7881C122.539 30.7588 122.547 30.7441 122.565 30.7441C122.582 30.7441 122.594 30.7354 122.6 30.7178C122.6 30.7061 122.597 30.6914 122.591 30.6738C122.585 30.6562 122.582 30.6387 122.582 30.6211C122.582 30.6035 122.588 30.5947 122.6 30.5947C122.618 30.5947 122.638 30.5742 122.662 30.5332C122.691 30.4922 122.711 30.4541 122.723 30.4189C122.741 30.3838 122.749 30.3574 122.749 30.3398L122.741 30.3047C122.741 30.2754 122.755 30.2461 122.785 30.2168C122.837 30.1641 122.864 30.126 122.864 30.1025C122.864 30.0674 122.846 30.0498 122.811 30.0498C122.717 30.0498 122.562 30.1318 122.345 30.2959C122.023 30.5361 121.61 30.9521 121.106 31.5439C120.731 31.9834 120.394 32.5312 120.095 33.1875C119.837 33.7441 119.708 34.1719 119.708 34.4707C119.708 34.5176 119.717 34.541 119.735 34.541C119.776 34.541 119.846 34.4912 119.946 34.3916C120.051 34.2861 120.122 34.2334 120.157 34.2334C120.186 34.2334 120.23 34.251 120.289 34.2861C120.412 34.333 120.482 34.3564 120.499 34.3564C120.517 34.3564 120.564 34.377 120.64 34.418C120.775 34.4941 120.924 34.5967 121.088 34.7256C121.159 34.79 121.194 34.8311 121.194 34.8486C121.194 34.8955 121.088 35.0303 120.877 35.2529C120.672 35.4697 120.514 35.6133 120.403 35.6836C120.321 35.7246 120.236 35.7451 120.148 35.7451C119.867 35.7451 119.533 35.5576 119.146 35.1826C118.958 35.0186 118.835 34.8662 118.777 34.7256C118.712 34.5791 118.68 34.3652 118.68 34.084C118.692 33.7207 118.783 33.3047 118.953 32.8359C119.123 32.3672 119.345 31.9219 119.621 31.5C119.861 31.1543 120.154 30.7764 120.499 30.3662C120.851 29.9561 121.123 29.6719 121.317 29.5137L121.616 29.2764C121.674 29.2295 121.753 29.2061 121.853 29.2061C122.134 29.2061 122.442 29.3291 122.776 29.5752C122.881 29.6572 122.949 29.6982 122.978 29.6982L123.127 29.4258C123.239 29.168 123.417 28.8369 123.664 28.4326C123.91 28.0225 124.135 27.6709 124.34 27.3779C124.393 27.3018 124.446 27.2373 124.498 27.1846C124.528 27.1377 124.542 27.1084 124.542 27.0967C124.542 27.0791 124.545 27.0615 124.551 27.0439C124.557 27.0264 124.56 27.0059 124.56 26.9824C124.56 26.959 124.601 26.9004 124.683 26.8066C124.712 26.7598 124.736 26.7217 124.753 26.6924C124.777 26.6572 124.789 26.6338 124.789 26.6221C124.789 26.6045 124.806 26.5693 124.841 26.5166C124.935 26.376 125.014 26.2734 125.079 26.209C125.079 26.2031 125.081 26.2002 125.087 26.2002C125.099 26.1768 125.111 26.1562 125.123 26.1387C125.134 26.1211 125.14 26.1035 125.14 26.0859C125.14 26.0391 125.24 25.8662 125.439 25.5674C125.644 25.2627 125.758 25.1104 125.782 25.1104C125.84 25.1104 125.937 25.1572 126.072 25.251C126.206 25.3389 126.33 25.4355 126.441 25.541C126.558 25.6465 126.617 25.7197 126.617 25.7607C126.617 25.8018 126.543 25.9277 126.397 26.1387C125.905 26.8945 125.618 27.3516 125.536 27.5098C125.489 27.5918 125.451 27.6328 125.421 27.6328C125.392 27.6328 125.372 27.668 125.36 27.7383C125.348 27.8086 125.316 27.8789 125.263 27.9492C125.21 28.0195 125.143 28.1162 125.061 28.2393C124.85 28.5557 124.745 28.7285 124.745 28.7578C124.745 28.7812 124.657 28.9248 124.481 29.1885C124.194 29.6396 124.05 29.9326 124.05 30.0674C124.05 30.1143 124.009 30.1875 123.927 30.2871C123.845 30.3809 123.804 30.4395 123.804 30.4629C123.804 30.4805 123.784 30.5273 123.743 30.6035L123.681 30.7617C123.546 31.0488 123.464 31.2744 123.435 31.4385C123.423 31.4502 123.412 31.4736 123.4 31.5088C123.388 31.5439 123.373 31.5791 123.356 31.6143C123.303 31.7432 123.265 31.8252 123.242 31.8604C123.218 31.9248 123.174 32.0684 123.11 32.291C123.063 32.4609 123.039 32.5576 123.039 32.5811L123.048 32.6162C123.048 32.6631 123.016 32.7949 122.952 33.0117C122.911 33.1465 122.887 33.2402 122.881 33.293C122.875 33.3457 122.861 33.3984 122.837 33.4512C122.831 33.4746 122.814 33.6533 122.785 33.9873C122.779 34.1982 122.755 34.5029 122.714 34.9014C122.697 35.0889 122.688 35.2734 122.688 35.4551C122.688 35.5605 122.7 35.6807 122.723 35.8154C122.764 36.0439 122.805 36.1729 122.846 36.2021C122.893 36.2139 122.969 36.3105 123.075 36.4922C123.145 36.6211 123.18 36.7148 123.18 36.7734C123.18 36.791 123.177 36.8057 123.171 36.8174C123.165 36.835 123.11 36.876 123.004 36.9404C122.975 36.958 122.957 36.9756 122.952 36.9932C122.916 37.0342 122.805 37.0547 122.618 37.0547ZM127.604 36.9053C127.235 36.9053 126.842 36.7207 126.426 36.3516C125.864 35.8535 125.518 35.2119 125.389 34.4268C125.378 34.3623 125.363 34.2656 125.345 34.1367L125.319 33.9434C125.301 33.832 125.293 33.7529 125.293 33.7061C125.293 33.5947 125.31 33.3369 125.345 32.9326C125.369 32.6631 125.419 32.4111 125.495 32.1768C125.612 31.8252 125.717 31.5674 125.811 31.4033C125.876 31.2861 125.908 31.207 125.908 31.166C125.908 31.1191 125.925 31.0752 125.961 31.0342C126.002 30.9932 126.046 30.9404 126.092 30.876C126.204 30.7178 126.259 30.6299 126.259 30.6123C126.259 30.5303 126.45 30.3164 126.831 29.9707C127.13 29.707 127.469 29.502 127.85 29.3555C128.096 29.2617 128.278 29.2148 128.395 29.2148C128.477 29.2148 128.603 29.2529 128.773 29.3291C128.943 29.4053 129.11 29.499 129.274 29.6104C129.415 29.7158 129.567 29.8652 129.731 30.0586C129.983 30.3516 130.115 30.583 130.127 30.7529C130.127 30.8057 130.109 30.8643 130.074 30.9287C130.033 31.04 130.012 31.1279 130.012 31.1924C130.012 31.3096 129.922 31.5088 129.74 31.79C129.394 32.3232 129.005 32.751 128.571 33.0732C128.038 33.4658 127.692 33.6621 127.534 33.6621C127.493 33.6621 127.417 33.627 127.305 33.5566C127.007 33.3691 126.831 33.2227 126.778 33.1172C126.719 33.0293 126.667 32.9648 126.62 32.9238C126.573 32.877 126.549 32.8389 126.549 32.8096C126.549 32.7979 126.555 32.7891 126.567 32.7832L126.62 32.8096C126.667 32.8096 126.755 32.7773 126.883 32.7129C127.276 32.5137 127.692 32.1885 128.132 31.7373C128.419 31.4385 128.624 31.1895 128.747 30.9902C128.876 30.7617 128.964 30.5771 129.01 30.4365C129.063 30.29 129.09 30.1992 129.09 30.1641C129.09 30.1523 129.087 30.1436 129.081 30.1377C129.075 30.126 129.046 30.1201 128.993 30.1201C128.846 30.1201 128.632 30.2051 128.351 30.375C128.076 30.5391 127.809 30.7441 127.551 30.9902C127.341 31.1953 127.168 31.4062 127.033 31.623C126.898 31.834 126.766 32.1035 126.637 32.4316C126.385 33.0527 126.259 33.5889 126.259 34.04L126.268 34.2334C126.315 34.6787 126.353 34.9512 126.382 35.0508C126.388 35.0625 126.391 35.0801 126.391 35.1035C126.409 35.1504 126.421 35.1973 126.426 35.2441C126.456 35.3848 126.506 35.543 126.576 35.7188C126.687 35.9941 126.763 36.1318 126.804 36.1318C126.886 36.1318 127.171 35.9824 127.657 35.6836C127.973 35.4961 128.278 35.2852 128.571 35.0508C128.676 34.9746 128.729 34.916 128.729 34.875C128.729 34.8047 128.805 34.7695 128.958 34.7695L129.116 34.7871C129.38 34.8281 129.588 34.9072 129.74 35.0244C129.898 35.1416 129.977 35.2676 129.977 35.4023C129.977 35.4844 129.913 35.5811 129.784 35.6924C129.655 35.8037 129.333 36.041 128.817 36.4043C128.407 36.7383 128.003 36.9053 127.604 36.9053ZM126.514 30.375C126.538 30.375 126.62 30.3105 126.76 30.1816L127.007 29.9443C127.024 29.9326 127.033 29.9268 127.033 29.9268C127.039 29.9209 127.042 29.915 127.042 29.9092H126.998C126.968 29.9092 126.878 29.9766 126.725 30.1113C126.579 30.2402 126.506 30.3252 126.506 30.3662C126.506 30.3721 126.508 30.375 126.514 30.375Z" fill="#FF0000"/>
</svg>
